<?xml version="1.0" encoding="UTF-8"?>
<svg id="Capa_1" xmlns="http://www.w3.org/2000/svg" version="1.1" viewBox="0 0 50 50">
  <!-- Generator: Adobe Illustrator 29.0.0, SVG Export Plug-In . SVG Version: 2.1.0 Build 186)  -->
  <defs>
    <style>
      .st0 {
        fill: #fff;
      }
    </style>
  </defs>
  <path class="st0" d="M25,1C11.8,1,1,11.8,1,25s10.8,24,24,24,24-10.8,24-24S38.2,1,25,1ZM37.1,30.7c-.7.7-1.7.7-2.4,0l-9.8-9.8-9.7,9.8c-.7.7-1.7.7-2.4,0-.7-.7-.7-1.7,0-2.4l10.9-10.9c.3-.3.7-.5,1.2-.5s.9.2,1.2.5l10.9,10.9c.3.3.5.8.5,1.2s-.2.9-.5,1.2Z"/>
</svg>